<?xml version="1.0" encoding="utf-8"?>
<svg xmlns="http://www.w3.org/2000/svg" xmlns:xlink="http://www.w3.org/1999/xlink" style="background: rgb(36, 96, 215); display: block; position: relative; shape-rendering: auto;" width="768" height="768" preserveAspectRatio="xMidYMid" viewBox="0 0 768 768"><g transform="scale(3)"><g transform="translate(-61.8588 61.8588)">
  <line x1="222.5119567236414" x2="216.27384759752823" y1="210.2940119322314" y2="216.53212105834456" stroke-width="3" stroke="#3bccbb" stroke-linecap="round"></line><line x1="222.5119567236414" x2="216.27384759752823" y1="-301.7059880677686" y2="-295.46787894165544" stroke-width="3" stroke="#3bccbb" stroke-linecap="round"></line><line x1="478.5119567236414" x2="472.27384759752823" y1="-301.7059880677686" y2="-295.46787894165544" stroke-width="3" stroke="#3bccbb" stroke-linecap="round"></line><line x1="734.5119567236413" x2="728.2738475975282" y1="-301.7059880677686" y2="-295.46787894165544" stroke-width="3" stroke="#3bccbb" stroke-linecap="round"></line><line x1="222.5119567236414" x2="216.27384759752823" y1="-45.7059880677686" y2="-39.46787894165544" stroke-width="3" stroke="#3bccbb" stroke-linecap="round"></line><line x1="478.5119567236414" x2="472.27384759752823" y1="-45.7059880677686" y2="-39.46787894165544" stroke-width="3" stroke="#3bccbb" stroke-linecap="round"></line><line x1="734.5119567236413" x2="728.2738475975282" y1="-45.7059880677686" y2="-39.46787894165544" stroke-width="3" stroke="#3bccbb" stroke-linecap="round"></line><line x1="222.5119567236414" x2="216.27384759752823" y1="210.2940119322314" y2="216.53212105834456" stroke-width="3" stroke="#3bccbb" stroke-linecap="round"></line><line x1="478.5119567236414" x2="472.27384759752823" y1="210.2940119322314" y2="216.53212105834456" stroke-width="3" stroke="#3bccbb" stroke-linecap="round"></line><line x1="734.5119567236413" x2="728.2738475975282" y1="210.2940119322314" y2="216.53212105834456" stroke-width="3" stroke="#3bccbb" stroke-linecap="round"></line><line x1="97.0836033665476" x2="88.65092603178374" y1="248.28894603533752" y2="256.7216233701014" stroke-width="3" stroke="#3bccbb" stroke-linecap="round"></line><line x1="97.0836033665476" x2="88.65092603178374" y1="-263.7110539646625" y2="-255.27837662989862" stroke-width="3" stroke="#3bccbb" stroke-linecap="round"></line><line x1="353.0836033665476" x2="344.65092603178374" y1="-263.7110539646625" y2="-255.27837662989862" stroke-width="3" stroke="#3bccbb" stroke-linecap="round"></line><line x1="609.0836033665475" x2="600.6509260317837" y1="-263.7110539646625" y2="-255.27837662989862" stroke-width="3" stroke="#3bccbb" stroke-linecap="round"></line><line x1="97.0836033665476" x2="88.65092603178374" y1="-7.711053964662483" y2="0.7216233701013834" stroke-width="3" stroke="#3bccbb" stroke-linecap="round"></line><line x1="353.0836033665476" x2="344.65092603178374" y1="-7.711053964662483" y2="0.7216233701013834" stroke-width="3" stroke="#3bccbb" stroke-linecap="round"></line><line x1="609.0836033665475" x2="600.6509260317837" y1="-7.711053964662483" y2="0.7216233701013834" stroke-width="3" stroke="#3bccbb" stroke-linecap="round"></line><line x1="97.0836033665476" x2="88.65092603178374" y1="248.28894603533752" y2="256.7216233701014" stroke-width="3" stroke="#3bccbb" stroke-linecap="round"></line><line x1="353.0836033665476" x2="344.65092603178374" y1="248.28894603533752" y2="256.7216233701014" stroke-width="3" stroke="#3bccbb" stroke-linecap="round"></line><line x1="609.0836033665475" x2="600.6509260317837" y1="248.28894603533752" y2="256.7216233701014" stroke-width="3" stroke="#3bccbb" stroke-linecap="round"></line><line x1="120.78145166695552" x2="110.84434541342111" y1="27.10401413774926" y2="37.04112039128367" stroke-width="3" stroke="#3bccbb" stroke-linecap="round"></line><line x1="120.78145166695552" x2="110.84434541342111" y1="-484.89598586225077" y2="-474.9588796087163" stroke-width="3" stroke="#3bccbb" stroke-linecap="round"></line><line x1="376.7814516669555" x2="366.84434541342114" y1="-484.89598586225077" y2="-474.9588796087163" stroke-width="3" stroke="#3bccbb" stroke-linecap="round"></line><line x1="632.7814516669555" x2="622.8443454134211" y1="-484.89598586225077" y2="-474.9588796087163" stroke-width="3" stroke="#3bccbb" stroke-linecap="round"></line><line x1="120.78145166695552" x2="110.84434541342111" y1="-228.89598586225074" y2="-218.95887960871633" stroke-width="3" stroke="#3bccbb" stroke-linecap="round"></line><line x1="376.7814516669555" x2="366.84434541342114" y1="-228.89598586225074" y2="-218.95887960871633" stroke-width="3" stroke="#3bccbb" stroke-linecap="round"></line><line x1="632.7814516669555" x2="622.8443454134211" y1="-228.89598586225074" y2="-218.95887960871633" stroke-width="3" stroke="#3bccbb" stroke-linecap="round"></line><line x1="120.78145166695552" x2="110.84434541342111" y1="27.10401413774926" y2="37.04112039128367" stroke-width="3" stroke="#3bccbb" stroke-linecap="round"></line><line x1="376.7814516669555" x2="366.84434541342114" y1="27.10401413774926" y2="37.04112039128367" stroke-width="3" stroke="#3bccbb" stroke-linecap="round"></line><line x1="632.7814516669555" x2="622.8443454134211" y1="27.10401413774926" y2="37.04112039128367" stroke-width="3" stroke="#3bccbb" stroke-linecap="round"></line><line x1="219.9862690327862" x2="213.27268715284714" y1="164.2422119174508" y2="170.95579379738984" stroke-width="3" stroke="#3bccbb" stroke-linecap="round"></line><line x1="219.9862690327862" x2="213.27268715284714" y1="-347.7577880825492" y2="-341.04420620261016" stroke-width="3" stroke="#3bccbb" stroke-linecap="round"></line><line x1="475.9862690327862" x2="469.27268715284714" y1="-347.7577880825492" y2="-341.04420620261016" stroke-width="3" stroke="#3bccbb" stroke-linecap="round"></line><line x1="731.9862690327861" x2="725.2726871528471" y1="-347.7577880825492" y2="-341.04420620261016" stroke-width="3" stroke="#3bccbb" stroke-linecap="round"></line><line x1="219.9862690327862" x2="213.27268715284714" y1="-91.75778808254921" y2="-85.04420620261016" stroke-width="3" stroke="#3bccbb" stroke-linecap="round"></line><line x1="475.9862690327862" x2="469.27268715284714" y1="-91.75778808254921" y2="-85.04420620261016" stroke-width="3" stroke="#3bccbb" stroke-linecap="round"></line><line x1="731.9862690327861" x2="725.2726871528471" y1="-91.75778808254921" y2="-85.04420620261016" stroke-width="3" stroke="#3bccbb" stroke-linecap="round"></line><line x1="219.9862690327862" x2="213.27268715284714" y1="164.2422119174508" y2="170.95579379738984" stroke-width="3" stroke="#3bccbb" stroke-linecap="round"></line><line x1="475.9862690327862" x2="469.27268715284714" y1="164.2422119174508" y2="170.95579379738984" stroke-width="3" stroke="#3bccbb" stroke-linecap="round"></line><line x1="731.9862690327861" x2="725.2726871528471" y1="164.2422119174508" y2="170.95579379738984" stroke-width="3" stroke="#3bccbb" stroke-linecap="round"></line>
  <animateTransform attributeName="transform" type="translate" values="0 0;-256 256" keyTimes="0;1" repeatCount="indefinite" dur="20s"></animateTransform>
</g><g transform="translate(-123.718 123.718)">
  <line x1="236.03547804976682" x2="226.2061511755798" y1="168.7811340624005" y2="178.61046093658751" stroke-width="3" stroke="#eeeeee" stroke-linecap="round"></line><line x1="236.03547804976682" x2="226.2061511755798" y1="-343.2188659375995" y2="-333.3895390634125" stroke-width="3" stroke="#eeeeee" stroke-linecap="round"></line><line x1="492.0354780497668" x2="482.2061511755798" y1="-343.2188659375995" y2="-333.3895390634125" stroke-width="3" stroke="#eeeeee" stroke-linecap="round"></line><line x1="748.0354780497669" x2="738.2061511755799" y1="-343.2188659375995" y2="-333.3895390634125" stroke-width="3" stroke="#eeeeee" stroke-linecap="round"></line><line x1="236.03547804976682" x2="226.2061511755798" y1="-87.2188659375995" y2="-77.38953906341249" stroke-width="3" stroke="#eeeeee" stroke-linecap="round"></line><line x1="492.0354780497668" x2="482.2061511755798" y1="-87.2188659375995" y2="-77.38953906341249" stroke-width="3" stroke="#eeeeee" stroke-linecap="round"></line><line x1="748.0354780497669" x2="738.2061511755799" y1="-87.2188659375995" y2="-77.38953906341249" stroke-width="3" stroke="#eeeeee" stroke-linecap="round"></line><line x1="236.03547804976682" x2="226.2061511755798" y1="168.7811340624005" y2="178.61046093658751" stroke-width="3" stroke="#eeeeee" stroke-linecap="round"></line><line x1="492.0354780497668" x2="482.2061511755798" y1="168.7811340624005" y2="178.61046093658751" stroke-width="3" stroke="#eeeeee" stroke-linecap="round"></line><line x1="748.0354780497669" x2="738.2061511755799" y1="168.7811340624005" y2="178.61046093658751" stroke-width="3" stroke="#eeeeee" stroke-linecap="round"></line><line x1="58.850521081423864" x2="47.26574004028507" y1="77.19444832266592" y2="88.77922936380472" stroke-width="3" stroke="#eeeeee" stroke-linecap="round"></line><line x1="58.850521081423864" x2="47.26574004028507" y1="-434.80555167733405" y2="-423.2207706361953" stroke-width="3" stroke="#eeeeee" stroke-linecap="round"></line><line x1="314.85052108142384" x2="303.2657400402851" y1="-434.80555167733405" y2="-423.2207706361953" stroke-width="3" stroke="#eeeeee" stroke-linecap="round"></line><line x1="570.8505210814238" x2="559.2657400402851" y1="-434.80555167733405" y2="-423.2207706361953" stroke-width="3" stroke="#eeeeee" stroke-linecap="round"></line><line x1="58.850521081423864" x2="47.26574004028507" y1="-178.80555167733408" y2="-167.22077063619528" stroke-width="3" stroke="#eeeeee" stroke-linecap="round"></line><line x1="314.85052108142384" x2="303.2657400402851" y1="-178.80555167733408" y2="-167.22077063619528" stroke-width="3" stroke="#eeeeee" stroke-linecap="round"></line><line x1="570.8505210814238" x2="559.2657400402851" y1="-178.80555167733408" y2="-167.22077063619528" stroke-width="3" stroke="#eeeeee" stroke-linecap="round"></line><line x1="58.850521081423864" x2="47.26574004028507" y1="77.19444832266592" y2="88.77922936380472" stroke-width="3" stroke="#eeeeee" stroke-linecap="round"></line><line x1="314.85052108142384" x2="303.2657400402851" y1="77.19444832266592" y2="88.77922936380472" stroke-width="3" stroke="#eeeeee" stroke-linecap="round"></line><line x1="570.8505210814238" x2="559.2657400402851" y1="77.19444832266592" y2="88.77922936380472" stroke-width="3" stroke="#eeeeee" stroke-linecap="round"></line><line x1="245.83313799128143" x2="241.806669435118" y1="214.84883214459802" y2="218.87530070076144" stroke-width="3" stroke="#eeeeee" stroke-linecap="round"></line><line x1="245.83313799128143" x2="241.806669435118" y1="-297.151167855402" y2="-293.12469929923856" stroke-width="3" stroke="#eeeeee" stroke-linecap="round"></line><line x1="501.83313799128143" x2="497.806669435118" y1="-297.151167855402" y2="-293.12469929923856" stroke-width="3" stroke="#eeeeee" stroke-linecap="round"></line><line x1="757.8331379912814" x2="753.806669435118" y1="-297.151167855402" y2="-293.12469929923856" stroke-width="3" stroke="#eeeeee" stroke-linecap="round"></line><line x1="245.83313799128143" x2="241.806669435118" y1="-41.15116785540198" y2="-37.12469929923856" stroke-width="3" stroke="#eeeeee" stroke-linecap="round"></line><line x1="501.83313799128143" x2="497.806669435118" y1="-41.15116785540198" y2="-37.12469929923856" stroke-width="3" stroke="#eeeeee" stroke-linecap="round"></line><line x1="757.8331379912814" x2="753.806669435118" y1="-41.15116785540198" y2="-37.12469929923856" stroke-width="3" stroke="#eeeeee" stroke-linecap="round"></line><line x1="245.83313799128143" x2="241.806669435118" y1="214.84883214459802" y2="218.87530070076144" stroke-width="3" stroke="#eeeeee" stroke-linecap="round"></line><line x1="501.83313799128143" x2="497.806669435118" y1="214.84883214459802" y2="218.87530070076144" stroke-width="3" stroke="#eeeeee" stroke-linecap="round"></line><line x1="757.8331379912814" x2="753.806669435118" y1="214.84883214459802" y2="218.87530070076144" stroke-width="3" stroke="#eeeeee" stroke-linecap="round"></line><line x1="87.60198758063157" x2="75.68609886046576" y1="53.63753155381712" y2="65.55342027398294" stroke-width="3" stroke="#eeeeee" stroke-linecap="round"></line><line x1="87.60198758063157" x2="75.68609886046576" y1="-458.3624684461829" y2="-446.44657972601703" stroke-width="3" stroke="#eeeeee" stroke-linecap="round"></line><line x1="343.60198758063154" x2="331.6860988604658" y1="-458.3624684461829" y2="-446.44657972601703" stroke-width="3" stroke="#eeeeee" stroke-linecap="round"></line><line x1="599.6019875806315" x2="587.6860988604658" y1="-458.3624684461829" y2="-446.44657972601703" stroke-width="3" stroke="#eeeeee" stroke-linecap="round"></line><line x1="87.60198758063157" x2="75.68609886046576" y1="-202.36246844618287" y2="-190.44657972601706" stroke-width="3" stroke="#eeeeee" stroke-linecap="round"></line><line x1="343.60198758063154" x2="331.6860988604658" y1="-202.36246844618287" y2="-190.44657972601706" stroke-width="3" stroke="#eeeeee" stroke-linecap="round"></line><line x1="599.6019875806315" x2="587.6860988604658" y1="-202.36246844618287" y2="-190.44657972601706" stroke-width="3" stroke="#eeeeee" stroke-linecap="round"></line><line x1="87.60198758063157" x2="75.68609886046576" y1="53.63753155381712" y2="65.55342027398294" stroke-width="3" stroke="#eeeeee" stroke-linecap="round"></line><line x1="343.60198758063154" x2="331.6860988604658" y1="53.63753155381712" y2="65.55342027398294" stroke-width="3" stroke="#eeeeee" stroke-linecap="round"></line><line x1="599.6019875806315" x2="587.6860988604658" y1="53.63753155381712" y2="65.55342027398294" stroke-width="3" stroke="#eeeeee" stroke-linecap="round"></line>
  <animateTransform attributeName="transform" type="translate" values="0 0;-256 256" keyTimes="0;1" repeatCount="indefinite" dur="10s"></animateTransform>
</g><g transform="translate(-185.576 185.576)">
  <line x1="79.31683642328505" x2="74.63509977757042" y1="178.6127090766778" y2="183.29444572239242" stroke-width="3" stroke="#a9f0f9" stroke-linecap="round"></line><line x1="79.31683642328505" x2="74.63509977757042" y1="-333.3872909233222" y2="-328.7055542776076" stroke-width="3" stroke="#a9f0f9" stroke-linecap="round"></line><line x1="335.31683642328505" x2="330.6350997775704" y1="-333.3872909233222" y2="-328.7055542776076" stroke-width="3" stroke="#a9f0f9" stroke-linecap="round"></line><line x1="591.316836423285" x2="586.6350997775704" y1="-333.3872909233222" y2="-328.7055542776076" stroke-width="3" stroke="#a9f0f9" stroke-linecap="round"></line><line x1="79.31683642328505" x2="74.63509977757042" y1="-77.38729092332221" y2="-72.70555427760758" stroke-width="3" stroke="#a9f0f9" stroke-linecap="round"></line><line x1="335.31683642328505" x2="330.6350997775704" y1="-77.38729092332221" y2="-72.70555427760758" stroke-width="3" stroke="#a9f0f9" stroke-linecap="round"></line><line x1="591.316836423285" x2="586.6350997775704" y1="-77.38729092332221" y2="-72.70555427760758" stroke-width="3" stroke="#a9f0f9" stroke-linecap="round"></line><line x1="79.31683642328505" x2="74.63509977757042" y1="178.6127090766778" y2="183.29444572239242" stroke-width="3" stroke="#a9f0f9" stroke-linecap="round"></line><line x1="335.31683642328505" x2="330.6350997775704" y1="178.6127090766778" y2="183.29444572239242" stroke-width="3" stroke="#a9f0f9" stroke-linecap="round"></line><line x1="591.316836423285" x2="586.6350997775704" y1="178.6127090766778" y2="183.29444572239242" stroke-width="3" stroke="#a9f0f9" stroke-linecap="round"></line><line x1="118.01802916041459" x2="106.76632854387935" y1="53.961631285461976" y2="65.21333190199721" stroke-width="3" stroke="#a9f0f9" stroke-linecap="round"></line><line x1="118.01802916041459" x2="106.76632854387935" y1="-458.038368714538" y2="-446.7866680980028" stroke-width="3" stroke="#a9f0f9" stroke-linecap="round"></line><line x1="374.0180291604146" x2="362.76632854387935" y1="-458.038368714538" y2="-446.7866680980028" stroke-width="3" stroke="#a9f0f9" stroke-linecap="round"></line><line x1="630.0180291604146" x2="618.7663285438794" y1="-458.038368714538" y2="-446.7866680980028" stroke-width="3" stroke="#a9f0f9" stroke-linecap="round"></line><line x1="118.01802916041459" x2="106.76632854387935" y1="-202.03836871453802" y2="-190.7866680980028" stroke-width="3" stroke="#a9f0f9" stroke-linecap="round"></line><line x1="374.0180291604146" x2="362.76632854387935" y1="-202.03836871453802" y2="-190.7866680980028" stroke-width="3" stroke="#a9f0f9" stroke-linecap="round"></line><line x1="630.0180291604146" x2="618.7663285438794" y1="-202.03836871453802" y2="-190.7866680980028" stroke-width="3" stroke="#a9f0f9" stroke-linecap="round"></line><line x1="118.01802916041459" x2="106.76632854387935" y1="53.961631285461976" y2="65.21333190199721" stroke-width="3" stroke="#a9f0f9" stroke-linecap="round"></line><line x1="374.0180291604146" x2="362.76632854387935" y1="53.961631285461976" y2="65.21333190199721" stroke-width="3" stroke="#a9f0f9" stroke-linecap="round"></line><line x1="630.0180291604146" x2="618.7663285438794" y1="53.961631285461976" y2="65.21333190199721" stroke-width="3" stroke="#a9f0f9" stroke-linecap="round"></line><line x1="26.858193052349662" x2="16.640159767169138" y1="104.07423382630228" y2="114.2922671114828" stroke-width="3" stroke="#a9f0f9" stroke-linecap="round"></line><line x1="26.858193052349662" x2="16.640159767169138" y1="-407.92576617369775" y2="-397.70773288851717" stroke-width="3" stroke="#a9f0f9" stroke-linecap="round"></line><line x1="282.85819305234963" x2="272.64015976716917" y1="-407.92576617369775" y2="-397.70773288851717" stroke-width="3" stroke="#a9f0f9" stroke-linecap="round"></line><line x1="538.8581930523496" x2="528.6401597671692" y1="-407.92576617369775" y2="-397.70773288851717" stroke-width="3" stroke="#a9f0f9" stroke-linecap="round"></line><line x1="26.858193052349662" x2="16.640159767169138" y1="-151.92576617369772" y2="-141.7077328885172" stroke-width="3" stroke="#a9f0f9" stroke-linecap="round"></line><line x1="282.85819305234963" x2="272.64015976716917" y1="-151.92576617369772" y2="-141.7077328885172" stroke-width="3" stroke="#a9f0f9" stroke-linecap="round"></line><line x1="538.8581930523496" x2="528.6401597671692" y1="-151.92576617369772" y2="-141.7077328885172" stroke-width="3" stroke="#a9f0f9" stroke-linecap="round"></line><line x1="26.858193052349662" x2="16.640159767169138" y1="104.07423382630228" y2="114.2922671114828" stroke-width="3" stroke="#a9f0f9" stroke-linecap="round"></line><line x1="282.85819305234963" x2="272.64015976716917" y1="104.07423382630228" y2="114.2922671114828" stroke-width="3" stroke="#a9f0f9" stroke-linecap="round"></line><line x1="538.8581930523496" x2="528.6401597671692" y1="104.07423382630228" y2="114.2922671114828" stroke-width="3" stroke="#a9f0f9" stroke-linecap="round"></line><line x1="38.510268976059244" x2="31.604059021754104" y1="192.02780669968467" y2="198.93401665398983" stroke-width="3" stroke="#a9f0f9" stroke-linecap="round"></line><line x1="38.510268976059244" x2="31.604059021754104" y1="-319.9721933003153" y2="-313.06598334601017" stroke-width="3" stroke="#a9f0f9" stroke-linecap="round"></line><line x1="294.51026897605925" x2="287.6040590217541" y1="-319.9721933003153" y2="-313.06598334601017" stroke-width="3" stroke="#a9f0f9" stroke-linecap="round"></line><line x1="550.5102689760593" x2="543.6040590217541" y1="-319.9721933003153" y2="-313.06598334601017" stroke-width="3" stroke="#a9f0f9" stroke-linecap="round"></line><line x1="38.510268976059244" x2="31.604059021754104" y1="-63.972193300315325" y2="-57.06598334601017" stroke-width="3" stroke="#a9f0f9" stroke-linecap="round"></line><line x1="294.51026897605925" x2="287.6040590217541" y1="-63.972193300315325" y2="-57.06598334601017" stroke-width="3" stroke="#a9f0f9" stroke-linecap="round"></line><line x1="550.5102689760593" x2="543.6040590217541" y1="-63.972193300315325" y2="-57.06598334601017" stroke-width="3" stroke="#a9f0f9" stroke-linecap="round"></line><line x1="38.510268976059244" x2="31.604059021754104" y1="192.02780669968467" y2="198.93401665398983" stroke-width="3" stroke="#a9f0f9" stroke-linecap="round"></line><line x1="294.51026897605925" x2="287.6040590217541" y1="192.02780669968467" y2="198.93401665398983" stroke-width="3" stroke="#a9f0f9" stroke-linecap="round"></line><line x1="550.5102689760593" x2="543.6040590217541" y1="192.02780669968467" y2="198.93401665398983" stroke-width="3" stroke="#a9f0f9" stroke-linecap="round"></line>
  <animateTransform attributeName="transform" type="translate" values="0 0;-256 256" keyTimes="0;1" repeatCount="indefinite" dur="6.666666666666666s"></animateTransform>
</g></g></svg>